<svg width="32" height="32" viewBox="0 0 32 32" xmlns="http://www.w3.org/2000/svg">
  <defs>
    <linearGradient id="bg" x1="0%" y1="0%" x2="100%" y2="100%">
      <stop offset="0%" style="stop-color:#0b0f10;stop-opacity:1" />
      <stop offset="100%" style="stop-color:#0f1416;stop-opacity:1" />
    </linearGradient>
    <linearGradient id="glow" x1="0%" y1="0%" x2="100%" y2="100%">
      <stop offset="0%" style="stop-color:#00ff9c;stop-opacity:1" />
      <stop offset="100%" style="stop-color:#0bd47a;stop-opacity:1" />
    </linearGradient>
  </defs>
  
  <!-- Background -->
  <rect width="32" height="32" rx="6" fill="url(#bg)" stroke="#1a2a2f" stroke-width="1"/>
  
  <!-- Letter 'c' with glow effect -->
  <path d="M20.5 12.2C19.8 11.1 18.6 10.5 17.2 10.5C14.8 10.5 13 12.5 13 16C13 19.5 14.8 21.5 17.2 21.5C18.6 21.5 19.8 20.9 20.5 19.8L22.2 21.1C21.2 22.6 19.4 23.5 17.2 23.5C13.6 23.5 11 20.6 11 16C11 11.4 13.6 8.5 17.2 8.5C19.4 8.5 21.2 9.4 22.2 10.9L20.5 12.2Z" 
        fill="url(#glow)" 
        filter="drop-shadow(0 0 4px #00ff9c55)"/>
  
  <!-- Subtle inner glow -->
  <path d="M20.5 12.2C19.8 11.1 18.6 10.5 17.2 10.5C14.8 10.5 13 12.5 13 16C13 19.5 14.8 21.5 17.2 21.5C18.6 21.5 19.8 20.9 20.5 19.8L22.2 21.1C21.2 22.6 19.4 23.5 17.2 23.5C13.6 23.5 11 20.6 11 16C11 11.4 13.6 8.5 17.2 8.5C19.4 8.5 21.2 9.4 22.2 10.9L20.5 12.2Z" 
        fill="none" 
        stroke="#63ffc8" 
        stroke-width="0.5" 
        opacity="0.6"/>
</svg>